<?xml version="1.0" standalone="no"?><!DOCTYPE svg PUBLIC "-//W3C//DTD SVG 1.1//EN" 	"http://www.w3.org/Graphics/SVG/1.1/DTD/svg11.dtd"><svg width="697" height="620" version="1.1"	xmlns="http://www.w3.org/2000/svg"><title>Krona (snapshot) - Bacteria(100)</title><defs>	<style type="text/css">	text {font-size: 11px; font-family: sans-serif; dominant-baseline:central}	path {stroke-width:0.27499999999999997;}	path.wedge {stroke:none}	path.line {fill:none;stroke:black;}	line {stroke:black;stroke-width:0.27499999999999997;}	line.tick {stroke-width:0.5499999999999999;}	line.pattern {stroke-width:0.18333333333333332;}	circle {fill:none;stroke:black;stroke-width:0.27499999999999997;}	rect {stroke:black;stroke-width:0.27499999999999997;}	.highlight {stroke:black;stroke-width:1.375;}	.searchHighlight {fill:rgb(255, 255, 100);stroke:none;}	</style><pattern id="hiddenPattern" patternUnits="userSpaceOnUse" x="0" y="0" width="6.6" height="6.6"><line class="pattern" x1="0" y1="0" x2="3.3" y2="3.3"/><line class="pattern" x1="3.3" y1="6.6" x2="6.6" y2="3.3"/></pattern></defs><path class="wedge" fill="rgb(208,114,114)" d=" M 273.5,364.7 L 273.5,528.8 A 218.8,218.8 0 1,1 300.16771641898225,527.1687659425194 L 280.1669291047456,364.2921914856298 A 54.7,54.7 0 1 0 273.5,364.7 Z "/><path class="wedge" fill="rgb(212,127,127)" d=" M 273.5,401.3604378035495 L 273.5,528.8 A 218.8,218.8 0 1,1 323.7365498172645,522.9547582526802 L 294.47638567205263,398.9197438131349 A 91.36043780354949,91.36043780354949 0 1 0 273.5,401.3604378035495 Z "/><path class="wedge" fill="rgb(216,140,140)" d=" M 273.5,431.4157879725883 L 273.5,528.8 A 218.8,218.8 0 1,1 324.15435618657193,522.8557638386236 L 301.60895141972935,428.1172316772105 A 121.41578797258833,121.41578797258833 0 1 0 273.5,431.4157879725883 Z "/><path class="wedge" fill="rgb(221,153,153)" d=" M 273.5,456.4997823854502 L 273.5,528.8 A 218.8,218.8 0 1,1 324.57636234959745,522.7548946772615 L 307.698701870459,452.4522201629716 A 146.49978238545023,146.49978238545023 0 1 0 273.5,456.4997823854502 Z "/><path class="wedge" fill="rgb(225,165,165)" d=" M 273.5,477.74939389918893 L 273.5,528.8 A 218.8,218.8 0 1,1 325.7314495816324,522.4742706178831 L 313.5447623848029,472.8995891925143 A 167.74939389918896,167.74939389918896 0 1 0 273.5,477.74939389918893 Z "/><path class="wedge" fill="rgb(225,186,165)" d=" M 313.5447623848029,472.8995891925143 L 325.7314495816324,522.4742706178831 A 218.8,218.8 0 0,1 324.57636234959745,522.7548946772615 L 312.65918110932506,473.11473780254295 A 167.74939389918896,167.74939389918896 0 0 0 313.5447623848029,472.8995891925143 Z "/><path class="wedge" fill="url(#hiddenPattern)" d=" M 313.5447623848029,472.8995891925143 L 325.7314495816324,522.4742706178831 A 218.8,218.8 0 0,1 324.57636234959745,522.7548946772615 L 312.65918110932506,473.11473780254295 A 167.74939389918896,167.74939389918896 0 0 0 313.5447623848029,472.8995891925143 Z "/><path class="wedge" fill="rgb(216,166,140)" d=" M 307.698701870459,452.4522201629716 L 324.57636234959745,522.7548946772615 A 218.8,218.8 0 0,1 324.15435618657193,522.8557638386236 L 307.4161433190488,452.51975814372554 A 146.49978238545023,146.49978238545023 0 0 0 307.698701870459,452.4522201629716 Z "/><path class="wedge" fill="url(#hiddenPattern)" d=" M 307.698701870459,452.4522201629716 L 324.57636234959745,522.7548946772615 A 218.8,218.8 0 0,1 324.15435618657193,522.8557638386236 L 307.4161433190488,452.51975814372554 A 146.49978238545023,146.49978238545023 0 0 0 307.698701870459,452.4522201629716 Z "/><path class="wedge" fill="rgb(212,157,127)" d=" M 301.60895141972935,428.1172316772105 L 324.15435618657193,522.8557638386236 A 218.8,218.8 0 0,1 323.7365498172645,522.9547582526802 L 301.3771036612768,428.1721653371171 A 121.41578797258833,121.41578797258833 0 0 0 301.60895141972935,428.1172316772105 Z "/><path class="wedge" fill="url(#hiddenPattern)" d=" M 301.60895141972935,428.1172316772105 L 324.15435618657193,522.8557638386236 A 218.8,218.8 0 0,1 323.7365498172645,522.9547582526802 L 301.3771036612768,428.1721653371171 A 121.41578797258833,121.41578797258833 0 0 0 301.60895141972935,428.1172316772105 Z "/><path class="wedge" fill="rgb(208,148,114)" d=" M 294.47638567205263,398.9197438131349 L 323.7365498172645,522.9547582526802 A 218.8,218.8 0 0,1 300.16771641898225,527.1687659425194 L 284.63516566388995,400.67931231154085 A 91.36043780354949,91.36043780354949 0 0 0 294.47638567205263,398.9197438131349 Z "/><path class="wedge" fill="url(#hiddenPattern)" d=" M 294.47638567205263,398.9197438131349 L 323.7365498172645,522.9547582526802 A 218.8,218.8 0 0,1 300.16771641898225,527.1687659425194 L 284.63516566388995,400.67931231154085 A 91.36043780354949,91.36043780354949 0 0 0 294.47638567205263,398.9197438131349 Z "/><path class="wedge" fill="rgb(204,168,101)" d=" M 280.1669291047456,364.2921914856298 L 300.16771641898225,527.1687659425194 A 218.8,218.8 0 0,1 288.2096488059067,528.3049844415077 L 277.17741220147667,364.5762461103769 A 54.7,54.7 0 0 0 280.1669291047456,364.2921914856298 Z "/><path class="wedge" fill="url(#hiddenPattern)" d=" M 280.1669291047456,364.2921914856298 L 300.16771641898225,527.1687659425194 A 218.8,218.8 0 0,1 288.2096488059067,528.3049844415077 L 277.17741220147667,364.5762461103769 A 54.7,54.7 0 0 0 280.1669291047456,364.2921914856298 Z "/><rect fill="rgb(204,168,101)" x="668.497784090909" y="320.8682386363636" width="20.29721590909091" height="20.29721590909091"/><rect fill="url(#hiddenPattern)" style="stroke:none" x="668.497784090909" y="320.8682386363636" width="20.29721590909091" height="20.29721590909091"/><path class="line" d="M 294.19648125546524,527.8189515713501 L 296.9991297588095,557.3152679299704 A 248.42916666666667,248.42916666666667 0 0,0 521.0385687323667,331.0168465909091"/><text x="661.7320454545454" y="331.0168465909091" style="font-color:black;font-weight:normal" text-anchor="end">Bacteroidetes(100)&#160;&#160;&#160;0.9%</text><path class="wedge" fill="rgb(175,204,101)" d=" M 277.17741220147667,364.5762461103769 L 288.2096488059067,528.3049844415077 A 218.8,218.8 0 0,1 281.46651805831664,528.6549212572781 L 275.49162951457913,364.66373031431954 A 54.7,54.7 0 0 0 277.17741220147667,364.5762461103769 Z "/><path class="wedge" fill="url(#hiddenPattern)" d=" M 277.17741220147667,364.5762461103769 L 288.2096488059067,528.3049844415077 A 218.8,218.8 0 0,1 281.46651805831664,528.6549212572781 L 275.49162951457913,364.66373031431954 A 54.7,54.7 0 0 0 277.17741220147667,364.5762461103769 Z "/><rect fill="rgb(175,204,101)" x="668.497784090909" y="347.9311931818182" width="20.29721590909091" height="20.29721590909091"/><rect fill="url(#hiddenPattern)" style="stroke:none" x="668.497784090909" y="347.9311931818182" width="20.29721590909091" height="20.29721590909091"/><path class="line" d="M 284.8394334010691,528.5059661660127 L 286.4931007720583,560.371419565223 A 250.70833333333334,250.70833333333334 0 0,0 519.5548742160283,358.07980113636364 L 531.6987126298384,358.07980113636364"/><text x="661.7320454545454" y="358.07980113636364" style="font-color:black;font-weight:normal" text-anchor="end">Firmicutes(100)&#160;&#160;&#160;0.5%</text><path class="wedge" fill="rgb(125,208,114)" d=" M 275.49162951457913,364.66373031431954 L 281.46651805831664,528.6549212572781 A 218.8,218.8 0 0,1 278.02844343565124,528.75313300625 L 274.6321108589128,364.6882832515625 A 54.7,54.7 0 0 0 275.49162951457913,364.66373031431954 Z "/><path class="wedge" fill="rgb(125,208,114)" d=" M 275.49162951457913,364.66373031431954 L 281.46651805831664,528.6549212572781 A 218.8,218.8 0 0,1 278.02844343565124,528.75313300625 L 274.6321108589128,364.6882832515625 A 54.7,54.7 0 0 0 275.49162951457913,364.66373031431954 Z "/><path class="wedge" fill="rgb(125,208,114)" d=" M 275.49162951457913,364.66373031431954 L 281.46651805831664,528.6549212572781 A 218.8,218.8 0 0,1 278.02844343565124,528.75313300625 L 274.6321108589128,364.6882832515625 A 54.7,54.7 0 0 0 275.49162951457913,364.66373031431954 Z "/><path class="wedge" fill="url(#hiddenPattern)" d=" M 275.49162951457913,364.66373031431954 L 281.46651805831664,528.6549212572781 A 218.8,218.8 0 0,1 278.02844343565124,528.75313300625 L 274.6321108589128,364.6882832515625 A 54.7,54.7 0 0 0 275.49162951457913,364.66373031431954 Z "/><rect fill="rgb(125,208,114)" x="668.497784090909" y="374.9941477272727" width="20.29721590909091" height="20.29721590909091"/><rect fill="url(#hiddenPattern)" style="stroke:none" x="668.497784090909" y="374.9941477272727" width="20.29721590909091" height="20.29721590909091"/><path class="line" d="M 279.7476737327458,528.7107829370311 L 280.72387275348734,562.8843427709423 A 252.9875,252.9875 0 0,0 515.0703653695805,385.1427556818182"/><text x="661.7320454545454" y="385.1427556818182" style="font-color:black;font-weight:normal" text-anchor="end">Fusobacteriales(100)&#160;&#160;&#160;0.3%</text><path class="wedge" fill="rgb(114,208,158)" d=" M 274.6321108589128,364.6882832515625 L 278.02844343565124,528.75313300625 A 218.8,218.8 0 0,1 275.2265179262042,528.7931880471842 L 273.93162948155106,364.69829701179606 A 54.7,54.7 0 0 0 274.6321108589128,364.6882832515625 Z "/><path class="wedge" fill="rgb(114,208,158)" d=" M 274.6321108589128,364.6882832515625 L 278.02844343565124,528.75313300625 A 218.8,218.8 0 0,1 275.2265179262042,528.7931880471842 L 273.93162948155106,364.69829701179606 A 54.7,54.7 0 0 0 274.6321108589128,364.6882832515625 Z "/><path class="wedge" fill="rgb(114,208,158)" d=" M 274.6321108589128,364.6882832515625 L 278.02844343565124,528.75313300625 A 218.8,218.8 0 0,1 275.2265179262042,528.7931880471842 L 273.93162948155106,364.69829701179606 A 54.7,54.7 0 0 0 274.6321108589128,364.6882832515625 Z "/><path class="wedge" fill="rgb(114,208,158)" d=" M 274.6321108589128,364.6882832515625 L 278.02844343565124,528.75313300625 A 218.8,218.8 0 0,1 275.2265179262042,528.7931880471842 L 273.93162948155106,364.69829701179606 A 54.7,54.7 0 0 0 274.6321108589128,364.6882832515625 Z "/><path class="wedge" fill="url(#hiddenPattern)" d=" M 274.6321108589128,364.6882832515625 L 278.02844343565124,528.75313300625 A 218.8,218.8 0 0,1 275.2265179262042,528.7931880471842 L 273.93162948155106,364.69829701179606 A 54.7,54.7 0 0 0 274.6321108589128,364.6882832515625 Z "/><rect fill="rgb(114,208,158)" x="668.497784090909" y="402.05710227272726" width="20.29721590909091" height="20.29721590909091"/><rect fill="url(#hiddenPattern)" style="stroke:none" x="668.497784090909" y="402.05710227272726" width="20.29721590909091" height="20.29721590909091"/><path class="line" d="M 276.62754480561847,528.77764616955 L 277.1488022732216,565.2405871978085 A 255.26666666666668,255.26666666666668 0 0,0 507.41251336354344,412.20571022727273"/><text x="661.7320454545454" y="412.20571022727273" style="font-color:black;font-weight:normal" text-anchor="end">Bacteria_unclassified(100)&#160;&#160;&#160;0.2%</text><path class="wedge" fill="rgb(114,206,208)" d=" M 273.93162948155106,364.69829701179606 L 275.2265179262042,528.7931880471842 A 218.8,218.8 0 0,1 274.73387902375265,528.7965208648318 L 273.8084697559382,364.69913021620795 A 54.7,54.7 0 0 0 273.93162948155106,364.69829701179606 Z "/><path class="wedge" fill="rgb(114,206,208)" d=" M 273.93162948155106,364.69829701179606 L 275.2265179262042,528.7931880471842 A 218.8,218.8 0 0,1 274.73387902375265,528.7965208648318 L 273.8084697559382,364.69913021620795 A 54.7,54.7 0 0 0 273.93162948155106,364.69829701179606 Z "/><path class="wedge" fill="url(#hiddenPattern)" d=" M 273.93162948155106,364.69829701179606 L 275.2265179262042,528.7931880471842 A 218.8,218.8 0 0,1 274.73387902375265,528.7965208648318 L 273.8084697559382,364.69913021620795 A 54.7,54.7 0 0 0 273.93162948155106,364.69829701179606 Z "/><rect fill="rgb(114,206,208)" x="668.497784090909" y="429.1200568181818" width="20.29721590909091" height="20.29721590909091"/><rect fill="url(#hiddenPattern)" style="stroke:none" x="668.497784090909" y="429.1200568181818" width="20.29721590909091" height="20.29721590909091"/><path class="line" d="M 274.9801994130005,528.794993109298 L 275.24231805905265,567.5399398057361 A 257.54583333333335,257.54583333333335 0 0,0 496.2542784667387,439.2686647727272 L 496.41251336354344,439.2686647727273 L 501.61537675337354,439.2686647727273"/><text x="661.7320454545454" y="439.2686647727273" style="font-color:black;font-weight:normal" text-anchor="end">Actinobacteria(100)&#160;&#160;&#160;0.04%</text><path class="wedge" fill="rgb(114,157,208)" d=" M 273.8084697559382,364.69913021620795 L 274.73387902375265,528.7965208648318 A 218.8,218.8 0 0,1 274.28643086380316,528.7985866647599 L 273.6966077159508,364.69964666619 A 54.7,54.7 0 0 0 273.8084697559382,364.69913021620795 Z "/><path class="wedge" fill="rgb(114,157,208)" d=" M 273.8084697559382,364.69913021620795 L 274.73387902375265,528.7965208648318 A 218.8,218.8 0 0,1 274.28643086380316,528.7985866647599 L 273.6966077159508,364.69964666619 A 54.7,54.7 0 0 0 273.8084697559382,364.69913021620795 Z "/><path class="wedge" fill="rgb(114,157,208)" d=" M 273.8084697559382,364.69913021620795 L 274.73387902375265,528.7965208648318 A 218.8,218.8 0 0,1 274.28643086380316,528.7985866647599 L 273.6966077159508,364.69964666619 A 54.7,54.7 0 0 0 273.8084697559382,364.69913021620795 Z "/><path class="wedge" fill="url(#hiddenPattern)" d=" M 273.8084697559382,364.69913021620795 L 274.73387902375265,528.7965208648318 A 218.8,218.8 0 0,1 274.28643086380316,528.7985866647599 L 273.6966077159508,364.69964666619 A 54.7,54.7 0 0 0 273.8084697559382,364.69913021620795 Z "/><rect fill="rgb(114,157,208)" x="668.497784090909" y="456.18301136363635" width="20.29721590909091" height="20.29721590909091"/><rect fill="url(#hiddenPattern)" style="stroke:none" x="668.497784090909" y="456.18301136363635" width="20.29721590909091" height="20.29721590909091"/><path class="line" d="M 274.5101554718562,528.7976681455327 L 274.6995596228292,569.8222309228202 A 259.82500000000005,259.82500000000005 0 0,0 481.03181786500863,466.3316193181818 L 485.41251336354344,466.3316193181818 L 500.0653737016157,466.3316193181818"/><text x="661.7320454545454" y="466.3316193181818" style="font-color:black;font-weight:normal" text-anchor="end">Spirochaetales(100)&#160;&#160;&#160;0.03%</text><path class="wedge" fill="rgb(117,114,208)" d=" M 273.6966077159508,364.69964666619 L 274.28643086380316,528.7985866647599 A 218.8,218.8 0 0,1 273.84349913672116,528.7997303662486 L 273.5858747841803,364.6999325915622 A 54.7,54.7 0 0 0 273.6966077159508,364.69964666619 Z "/><path class="wedge" fill="rgb(117,114,208)" d=" M 273.6966077159508,364.69964666619 L 274.28643086380316,528.7985866647599 A 218.8,218.8 0 0,1 273.84349913672116,528.7997303662486 L 273.5858747841803,364.6999325915622 A 54.7,54.7 0 0 0 273.6966077159508,364.69964666619 Z "/><path class="wedge" fill="rgb(117,114,208)" d=" M 273.6966077159508,364.69964666619 L 274.28643086380316,528.7985866647599 A 218.8,218.8 0 0,1 273.84349913672116,528.7997303662486 L 273.5858747841803,364.6999325915622 A 54.7,54.7 0 0 0 273.6966077159508,364.69964666619 Z "/><path class="wedge" fill="rgb(117,114,208)" d=" M 273.6966077159508,364.69964666619 L 274.28643086380316,528.7985866647599 A 218.8,218.8 0 0,1 273.84349913672116,528.7997303662486 L 273.5858747841803,364.6999325915622 A 54.7,54.7 0 0 0 273.6966077159508,364.69964666619 Z "/><path class="wedge" fill="url(#hiddenPattern)" d=" M 273.6966077159508,364.69964666619 L 274.28643086380316,528.7985866647599 A 218.8,218.8 0 0,1 273.84349913672116,528.7997303662486 L 273.5858747841803,364.6999325915622 A 54.7,54.7 0 0 0 273.6966077159508,364.69964666619 Z "/><rect fill="rgb(117,114,208)" x="668.497784090909" y="483.2459659090909" width="20.29721590909091" height="20.29721590909091"/><rect fill="url(#hiddenPattern)" style="stroke:none" x="668.497784090909" y="483.2459659090909" width="20.29721590909091" height="20.29721590909091"/><path class="line" d="M 274.0649652896723,528.7992705980106 L 274.17678133658654,572.1032929038669 A 262.1041666666667,262.1041666666667 0 0,0 460.7565738803394,493.39457386363637"/><text x="661.7320454545454" y="493.39457386363637" style="font-color:black;font-weight:normal" text-anchor="end">SR1_family_incertae_sedis(100)&#160;&#160;&#160;0.03%</text><path class="wedge" fill="rgb(159,114,208)" d=" M 273.5858747841803,364.6999325915622 L 273.84349913672116,528.7997303662486 A 218.8,218.8 0 0,1 273.6401115379571,528.7999551388367 L 273.5350278844893,364.69998878470915 A 54.7,54.7 0 0 0 273.5858747841803,364.6999325915622 Z "/><path class="wedge" fill="rgb(159,114,208)" d=" M 273.5858747841803,364.6999325915622 L 273.84349913672116,528.7997303662486 A 218.8,218.8 0 0,1 273.6401115379571,528.7999551388367 L 273.5350278844893,364.69998878470915 A 54.7,54.7 0 0 0 273.5858747841803,364.6999325915622 Z "/><path class="wedge" fill="rgb(159,114,208)" d=" M 273.5858747841803,364.6999325915622 L 273.84349913672116,528.7997303662486 A 218.8,218.8 0 0,1 273.6401115379571,528.7999551388367 L 273.5350278844893,364.69998878470915 A 54.7,54.7 0 0 0 273.5858747841803,364.6999325915622 Z "/><path class="wedge" fill="rgb(159,114,208)" d=" M 273.5858747841803,364.6999325915622 L 273.84349913672116,528.7997303662486 A 218.8,218.8 0 0,1 273.6401115379571,528.7999551388367 L 273.5350278844893,364.69998878470915 A 54.7,54.7 0 0 0 273.5858747841803,364.6999325915622 Z "/><path class="wedge" fill="url(#hiddenPattern)" d=" M 273.5858747841803,364.6999325915622 L 273.84349913672116,528.7997303662486 A 218.8,218.8 0 0,1 273.6401115379571,528.7999551388367 L 273.5350278844893,364.69998878470915 A 54.7,54.7 0 0 0 273.5858747841803,364.6999325915622 Z "/><rect fill="rgb(159,114,208)" x="668.497784090909" y="510.30892045454544" width="20.29721590909091" height="20.29721590909091"/><rect fill="url(#hiddenPattern)" style="stroke:none" x="668.497784090909" y="510.30892045454544" width="20.29721590909091" height="20.29721590909091"/><path class="line" d="M 273.74180536345665,528.7998663851654 L 273.79218148084345,574.3831718820747 A 264.3833333333334,264.3833333333334 0 0,0 433.51929783742077,520.4575284090909 L 434.1487172074751,520.4575284090909"/><text x="661.7320454545454" y="520.4575284090909" style="font-color:black;font-weight:normal" text-anchor="end">TM7_family_incertae_sedis(100)&#160;&#160;&#160;0.01%</text><path class="wedge" fill="rgb(197,114,208)" d=" M 273.5350278844893,364.69998878470915 L 273.6401115379571,528.7999551388367 A 218.8,218.8 0 0,1 273.5542367275219,528.7999932778275 L 273.51355918188045,364.6999983194569 A 54.7,54.7 0 0 0 273.5350278844893,364.69998878470915 Z "/><path class="wedge" fill="rgb(197,114,208)" d=" M 273.5350278844893,364.69998878470915 L 273.6401115379571,528.7999551388367 A 218.8,218.8 0 0,1 273.5542367275219,528.7999932778275 L 273.51355918188045,364.6999983194569 A 54.7,54.7 0 0 0 273.5350278844893,364.69998878470915 Z "/><path class="wedge" fill="rgb(197,114,208)" d=" M 273.5350278844893,364.69998878470915 L 273.6401115379571,528.7999551388367 A 218.8,218.8 0 0,1 273.5542367275219,528.7999932778275 L 273.51355918188045,364.6999983194569 A 54.7,54.7 0 0 0 273.5350278844893,364.69998878470915 Z "/><path class="wedge" fill="rgb(197,114,208)" d=" M 273.5350278844893,364.69998878470915 L 273.6401115379571,528.7999551388367 A 218.8,218.8 0 0,1 273.5542367275219,528.7999932778275 L 273.51355918188045,364.6999983194569 A 54.7,54.7 0 0 0 273.5350278844893,364.69998878470915 Z "/><path class="wedge" fill="url(#hiddenPattern)" d=" M 273.5350278844893,364.69998878470915 L 273.6401115379571,528.7999551388367 A 218.8,218.8 0 0,1 273.5542367275219,528.7999932778275 L 273.51355918188045,364.6999983194569 A 54.7,54.7 0 0 0 273.5350278844893,364.69998878470915 Z "/><rect fill="rgb(197,114,208)" x="668.497784090909" y="537.3718749999999" width="20.29721590909091" height="20.29721590909091"/><rect fill="url(#hiddenPattern)" style="stroke:none" x="668.497784090909" y="537.3718749999999" width="20.29721590909091" height="20.29721590909091"/><path class="line" d="M 273.59717413461055,528.7999784213599 L 273.6184309765566,576.6624737010325 A 266.6625,266.6625 0 0,0 394.71431055485783,547.5204829545454 L 423.1487172074751,547.5204829545454 L 468.11537675337354,547.5204829545454"/><text x="661.7320454545454" y="547.5204829545454" style="font-color:black;font-weight:normal" text-anchor="end">Mycoplasmataceae(100)&#160;&#160;&#160;0.006%</text><path class="wedge" fill="rgb(208,114,186)" d=" M 273.51355918188045,364.6999983194569 L 273.5542367275219,528.7999932778275 A 218.8,218.8 0 0,1 273.52259863665864,528.7999988329561 L 273.50564965916465,364.69999970823903 A 54.7,54.7 0 0 0 273.51355918188045,364.6999983194569 Z "/><path class="wedge" fill="rgb(208,114,186)" d=" M 273.51355918188045,364.6999983194569 L 273.5542367275219,528.7999932778275 A 218.8,218.8 0 0,1 273.52259863665864,528.7999988329561 L 273.50564965916465,364.69999970823903 A 54.7,54.7 0 0 0 273.51355918188045,364.6999983194569 Z "/><path class="wedge" fill="rgb(208,114,186)" d=" M 273.51355918188045,364.6999983194569 L 273.5542367275219,528.7999932778275 A 218.8,218.8 0 0,1 273.52259863665864,528.7999988329561 L 273.50564965916465,364.69999970823903 A 54.7,54.7 0 0 0 273.51355918188045,364.6999983194569 Z "/><path class="wedge" fill="rgb(208,114,186)" d=" M 273.51355918188045,364.6999983194569 L 273.5542367275219,528.7999932778275 A 218.8,218.8 0 0,1 273.52259863665864,528.7999988329561 L 273.50564965916465,364.69999970823903 A 54.7,54.7 0 0 0 273.51355918188045,364.6999983194569 Z "/><path class="wedge" fill="url(#hiddenPattern)" d=" M 273.51355918188045,364.6999983194569 L 273.5542367275219,528.7999932778275 A 218.8,218.8 0 0,1 273.52259863665864,528.7999988329561 L 273.50564965916465,364.69999970823903 A 54.7,54.7 0 0 0 273.51355918188045,364.6999983194569 Z "/><rect fill="rgb(208,114,186)" x="668.497784090909" y="564.4348295454545" width="20.29721590909091" height="20.29721590909091"/><rect fill="url(#hiddenPattern)" style="stroke:none" x="668.497784090909" y="564.4348295454545" width="20.29721590909091" height="20.29721590909091"/><path class="line" d="M 273.5384176821905,528.7999966272433 L 273.5472217343592,578.9416625209866 A 268.94166666666666,268.94166666666666 0 0,0 321.7205834693864,574.5834375 L 412.1487172074751,574.5834375 L 458.265385908647,574.5834375"/><text x="661.7320454545454" y="574.5834375" style="font-color:black;font-weight:normal" text-anchor="end">Verrucomicrobiaceae(100)&#160;&#160;&#160;0.002%</text><path class="wedge" fill="rgb(208,114,159)" d=" M 273.50564965916465,364.69999970823903 L 273.52259863665864,528.7999988329561 A 218.8,218.8 0 0,1 273.50000000000006,528.8 L 273.5,364.7 A 54.7,54.7 0 0 0 273.50564965916465,364.69999970823903 Z "/><path class="wedge" fill="rgb(208,114,159)" d=" M 273.50564965916465,364.69999970823903 L 273.52259863665864,528.7999988329561 A 218.8,218.8 0 0,1 273.50000000000006,528.8 L 273.5,364.7 A 54.7,54.7 0 0 0 273.50564965916465,364.69999970823903 Z "/><path class="wedge" fill="rgb(208,114,159)" d=" M 273.50564965916465,364.69999970823903 L 273.52259863665864,528.7999988329561 A 218.8,218.8 0 0,1 273.50000000000006,528.8 L 273.5,364.7 A 54.7,54.7 0 0 0 273.50564965916465,364.69999970823903 Z "/><path class="wedge" fill="rgb(208,114,159)" d=" M 273.50564965916465,364.69999970823903 L 273.52259863665864,528.7999988329561 A 218.8,218.8 0 0,1 273.50000000000006,528.8 L 273.5,364.7 A 54.7,54.7 0 0 0 273.50564965916465,364.69999970823903 Z "/><path class="wedge" fill="url(#hiddenPattern)" d=" M 273.50564965916465,364.69999970823903 L 273.52259863665864,528.7999988329561 A 218.8,218.8 0 0,1 273.50000000000006,528.8 L 273.5,364.7 A 54.7,54.7 0 0 0 273.50564965916465,364.69999970823903 Z "/><rect fill="rgb(208,114,159)" x="668.497784090909" y="591.497784090909" width="20.29721590909091" height="20.29721590909091"/><rect fill="url(#hiddenPattern)" style="stroke:none" x="668.497784090909" y="591.497784090909" width="20.29721590909091" height="20.29721590909091"/><path class="line" d="M 273.51129931834447,528.799999708239 L 273.51506126797136,601.6463920454545 L 401.1487172074751,601.6463920454545 L 466.3153737016157,601.6463920454545"/><text x="661.7320454545454" y="601.6463920454545" style="font-color:black;font-weight:normal" text-anchor="end">Planctomycetaceae(100)&#160;&#160;&#160;0.002%</text><circle cx="273.5" cy="310" r="54.7"/><circle cx="273.5" cy="310" r="218.8"/><text x="273.5" y="310" text-anchor="middle" style="font-color:black;font-weight:bold" transform="rotate(360,273.5,310)">Bacteria(100)</text><path class="line" d=" M 280.1669291047456,364.2921914856298 A 54.7,54.7 0 1 0 273.5,364.7"/><line x1="300.16771641898225" y1="527.1687659425194" x2="280.1669291047456" y2="364.2921914856298"/><text x="273.5" y="244.30186865893515" text-anchor="middle" style="font-color:black;font-weight:normal" transform="rotate(356.4996432904076,273.5,310)">Proteobacteria(100)</text><path class="line" d=" M 294.47638567205263,398.9197438131349 A 91.36043780354949,91.36043780354949 0 1 0 273.5,401.3604378035495"/><line x1="323.7365498172645" y1="522.9547582526802" x2="294.47638567205263" y2="398.9197438131349"/><text x="273.5" y="209.62295714573884" text-anchor="middle" style="font-color:black;font-weight:normal" transform="rotate(353.36322899440773,273.5,310)">Epsilonproteobacteria(100)</text><path class="line" d=" M 301.60895141972935,428.1172316772105 A 121.41578797258833,121.41578797258833 0 1 0 273.5,431.4157879725883"/><line x1="324.15435618657193" y1="522.8557638386236" x2="301.60895141972935" y2="428.1172316772105"/><text x="273.5" y="176.04221482098075" text-anchor="middle" style="font-color:black;font-weight:normal" transform="rotate(353.3070102475926,273.5,310)">Campylobacterales(100)</text><path class="line" d=" M 307.698701870459,452.4522201629716 A 146.49978238545023,146.49978238545023 0 1 0 273.5,456.4997823854502"/><line x1="324.57636234959745" y1="522.7548946772615" x2="307.698701870459" y2="452.4522201629716"/><text x="273.5" y="152.8754118576804" text-anchor="middle" style="font-color:black;font-weight:normal" transform="rotate(353.2501997244953,273.5,310)">Helicobacteraceae(100)</text><path class="line" d=" M 313.5447623848029,472.8995891925143 A 167.74939389918896,167.74939389918896 0 1 0 273.5,477.74939389918893"/><line x1="325.7314495816324" y1="522.4742706178831" x2="313.5447623848029" y2="472.8995891925143"/><text x="80.2253030504055" y="310" text-anchor="end" style="font-color:black;font-weight:normal" transform="rotate(83.09456256225981,273.5,310)">Helicobacter(100)&#160;&#160;&#160;96%</text><path class="line" d=" M 312.65918110932506,473.11473780254295 A 167.74939389918896,167.74939389918896 0 0 0 313.5447623848029,472.8995891925143"/><path class="line" d=" M 307.4161433190488,452.51975814372554 A 146.49978238545023,146.49978238545023 0 0 0 307.698701870459,452.4522201629716"/><path class="line" d=" M 301.3771036612768,428.1721653371171 A 121.41578797258833,121.41578797258833 0 0 0 301.60895141972935,428.1172316772105"/><line x1="484.05" y1="310" x2="500.55" y2="310" class="tick" transform="rotate(439.8628722848153,273.5,310)"/><text x="503.3" y="310" text-anchor="start" style="font-color:black;font-weight:normal" transform="rotate(439.8628722848153,273.5,310)">7 more</text><path class="line" d=" M 284.63516566388995,400.67931231154085 A 91.36043780354949,91.36043780354949 0 0 0 294.47638567205263,398.9197438131349"/><path class="line" d=" M 277.17741220147667,364.5762461103769 A 54.7,54.7 0 0 0 280.1669291047456,364.2921914856298"/><line x1="288.2096488059067" y1="528.3049844415077" x2="277.17741220147667" y2="364.5762461103769"/><path class="line" d=" M 275.49162951457913,364.66373031431954 A 54.7,54.7 0 0 0 277.17741220147667,364.5762461103769"/><line x1="281.46651805831664" y1="528.6549212572781" x2="275.49162951457913" y2="364.66373031431954"/><line x1="278.02844343565124" y1="528.75313300625" x2="274.6321108589128" y2="364.6882832515625"/><path class="line" d=" M 274.6321108589128,364.6882832515625 A 54.7,54.7 0 0 0 275.49162951457913,364.66373031431954"/><line x1="275.2265179262042" y1="528.7931880471842" x2="273.93162948155106" y2="364.69829701179606"/><path class="line" d=" M 273.93162948155106,364.69829701179606 A 54.7,54.7 0 0 0 274.6321108589128,364.6882832515625"/><line x1="274.73387902375265" y1="528.7965208648318" x2="273.8084697559382" y2="364.69913021620795"/><path class="line" d=" M 273.8084697559382,364.69913021620795 A 54.7,54.7 0 0 0 273.93162948155106,364.69829701179606"/><line x1="274.28643086380316" y1="528.7985866647599" x2="273.6966077159508" y2="364.69964666619"/><path class="line" d=" M 273.6966077159508,364.69964666619 A 54.7,54.7 0 0 0 273.8084697559382,364.69913021620795"/><line x1="273.84349913672116" y1="528.7997303662486" x2="273.5858747841803" y2="364.6999325915622"/><path class="line" d=" M 273.5858747841803,364.6999325915622 A 54.7,54.7 0 0 0 273.6966077159508,364.69964666619"/><line x1="273.6401115379571" y1="528.7999551388367" x2="273.5350278844893" y2="364.69998878470915"/><path class="line" d=" M 273.5350278844893,364.69998878470915 A 54.7,54.7 0 0 0 273.5858747841803,364.6999325915622"/><line x1="273.5542367275219" y1="528.7999932778275" x2="273.51355918188045" y2="364.6999983194569"/><path class="line" d=" M 273.51355918188045,364.6999983194569 A 54.7,54.7 0 0 0 273.5350278844893,364.69998878470915"/><line x1="273.52259863665864" y1="528.7999988329561" x2="273.50564965916465" y2="364.69999970823903"/><path class="line" d=" M 273.50564965916465,364.69999970823903 A 54.7,54.7 0 0 0 273.51355918188045,364.6999983194569"/><line x1="273.50000000000006" y1="528.8" x2="273.5" y2="364.7"/><path class="line" d=" M 273.5,364.7 A 54.7,54.7 0 0 0 273.50564965916465,364.69999970823903"/></svg>